<?xml version="1.0" encoding="UTF-8"?>
<svg width="30px" height="30px" viewBox="0 0 256 256" xmlns="http://www.w3.org/2000/svg">
<g fill="#f9f9f9" font-family="none" font-size="none" font-weight="none" stroke-dasharray="" stroke-miterlimit="10" text-anchor="none" style="mix-blend-mode:normal">
<g transform="scale(5.12)">
<path d="m41.625 10.77c-3.9805-3.2031-10.277-3.7461-10.547-3.7656-0.41797-0.03516-0.81641 0.19922-0.98828 0.58594-0.01562 0.02344-0.15234 0.33984-0.30469 0.83203 2.6328 0.44531 5.8672 1.3398 8.793 3.1562 0.46875 0.28906 0.61328 0.90625 0.32422 1.375-0.19141 0.30859-0.51562 0.47656-0.85156 0.47656-0.17969 0-0.36328-0.05078-0.52734-0.15234-5.0312-3.1211-11.312-3.2773-12.523-3.2773s-7.4961 0.15625-12.523 3.2773c-0.46875 0.29297-1.0859 0.14844-1.375-0.32031-0.29297-0.47266-0.14844-1.0859 0.32031-1.3789 2.9258-1.8125 6.1602-2.7109 8.793-3.1523-0.15234-0.49609-0.28906-0.80859-0.30078-0.83594-0.17578-0.38672-0.57031-0.62891-0.99219-0.58594-0.26953 0.01953-6.5664 0.5625-10.602 3.8086-2.1055 1.9492-6.3203 13.34-6.3203 23.188 0 0.17578 0.04688 0.34375 0.13281 0.49609 2.9062 5.1094 10.84 6.4453 12.648 6.5039h0.03125c0.32031 0 0.62109-0.15234 0.80859-0.41016l1.8281-2.5156c-4.9336-1.2734-7.4531-3.4375-7.5977-3.5664-0.41406-0.36328-0.45312-0.99609-0.08594-1.4102 0.36328-0.41406 0.99609-0.45312 1.4102-0.08984 0.05859 0.05469 4.6992 3.9922 13.824 3.9922 9.1406 0 13.781-3.9531 13.828-3.9922 0.41406-0.35937 1.043-0.32422 1.4102 0.09375 0.36328 0.41406 0.32422 1.043-0.08984 1.4062-0.14453 0.12891-2.6641 2.293-7.5977 3.5664l1.8281 2.5156c0.1875 0.25781 0.48828 0.41016 0.80859 0.41016h0.03125c1.8086-0.05859 9.7422-1.3945 12.648-6.5039 0.08594-0.15234 0.13281-0.32031 0.13281-0.49609 0-9.8477-4.2148-21.238-6.375-23.23zm-23.125 19.23c-1.9336 0-3.5-1.7891-3.5-4s1.5664-4 3.5-4 3.5 1.7891 3.5 4-1.5664 4-3.5 4zm13 0c-1.9336 0-3.5-1.7891-3.5-4s1.5664-4 3.5-4 3.5 1.7891 3.5 4-1.5664 4-3.5 4z"/>
</g>
</g>
</svg>
